<?xml version="1.0" encoding="UTF-8" standalone="no"?>
<!DOCTYPE svg PUBLIC "-//W3C//DTD SVG 1.1//EN"
 "http://www.w3.org/Graphics/SVG/1.1/DTD/svg11.dtd">
<!-- Generated by graphviz version 2.48.0 (0)
 -->
<!-- Pages: 1 -->
<svg width="336pt" height="217pt"
 viewBox="0.00 0.00 336.00 217.00" xmlns="http://www.w3.org/2000/svg" xmlns:xlink="http://www.w3.org/1999/xlink">
<g id="graph0" class="graph" transform="scale(1 1) rotate(0) translate(4 213)">
<polygon fill="white" stroke="transparent" points="-4,4 -4,-213 332,-213 332,4 -4,4"/>
<g id="clust1" class="cluster">
<title>cluster_F_plate_L</title>
<polygon fill="none" stroke="black" points="78.5,-91 78.5,-166 152.5,-166 152.5,-91 78.5,-91"/>
<text text-anchor="middle" x="115.5" y="-98.8" font-family="Times,serif" font-size="14.00">F_plate_L</text>
</g>
<g id="clust2" class="cluster">
<title>cluster_Y_plate_N</title>
<polygon fill="none" stroke="black" points="129.5,-8 129.5,-83 207.5,-83 207.5,-8 129.5,-8"/>
<text text-anchor="middle" x="168.5" y="-15.8" font-family="Times,serif" font-size="14.00">Y_plate_N</text>
</g>
<!-- F_mu -->
<g id="node1" class="node">
<title>F_mu</title>
<polygon fill="white" stroke="transparent" points="33,-209 0,-209 0,-194 33,-194 33,-209"/>
<text text-anchor="middle" x="16.5" y="-197.8" font-family="Times,serif" font-size="14.00">F_mu</text>
</g>
<!-- F -->
<g id="node7" class="node">
<title>F</title>
<ellipse fill="white" stroke="black" cx="116.5" cy="-140" rx="27" ry="18"/>
<text text-anchor="middle" x="116.5" y="-136.3" font-family="Times,serif" font-size="14.00">F</text>
</g>
<!-- F_mu&#45;&gt;F -->
<g id="edge3" class="edge">
<title>F_mu&#45;&gt;F</title>
<path fill="none" stroke="black" d="M27.58,-193.91C42.05,-185.3 67.88,-169.93 87.99,-157.96"/>
<polygon fill="black" stroke="black" points="89.96,-160.86 96.77,-152.74 86.38,-154.85 89.96,-160.86"/>
</g>
<!-- F_noise -->
<g id="node2" class="node">
<title>F_noise</title>
<polygon fill="white" stroke="transparent" points="96,-209 51,-209 51,-194 96,-194 96,-209"/>
<text text-anchor="middle" x="73.5" y="-197.8" font-family="Times,serif" font-size="14.00">F_noise</text>
</g>
<!-- F_noise&#45;&gt;F -->
<g id="edge4" class="edge">
<title>F_noise&#45;&gt;F</title>
<path fill="none" stroke="black" d="M78.43,-193.67C83.47,-186.71 91.57,-175.5 99.01,-165.2"/>
<polygon fill="black" stroke="black" points="102,-167.04 105.02,-156.88 96.33,-162.94 102,-167.04"/>
</g>
<!-- W -->
<g id="node3" class="node">
<title>W</title>
<polygon fill="white" stroke="transparent" points="175.5,-147.5 161.5,-147.5 161.5,-132.5 175.5,-132.5 175.5,-147.5"/>
<text text-anchor="middle" x="168.5" y="-136.3" font-family="Times,serif" font-size="14.00">W</text>
</g>
<!-- Y -->
<g id="node8" class="node">
<title>Y</title>
<ellipse fill="grey" stroke="black" cx="168.5" cy="-57" rx="27" ry="18"/>
<text text-anchor="middle" x="168.5" y="-53.3" font-family="Times,serif" font-size="14.00">Y</text>
</g>
<!-- W&#45;&gt;Y -->
<g id="edge7" class="edge">
<title>W&#45;&gt;Y</title>
<path fill="none" stroke="black" d="M168.5,-132.37C168.5,-122.21 168.5,-102.19 168.5,-85.48"/>
<polygon fill="black" stroke="black" points="172,-85.11 168.5,-75.11 165,-85.11 172,-85.11"/>
</g>
<!-- kernel_variance -->
<g id="node4" class="node">
<title>kernel_variance</title>
<polygon fill="white" stroke="transparent" points="204.5,-209 114.5,-209 114.5,-194 204.5,-194 204.5,-209"/>
<text text-anchor="middle" x="159.5" y="-197.8" font-family="Times,serif" font-size="14.00">kernel_variance</text>
</g>
<!-- kernel_variance&#45;&gt;F -->
<g id="edge2" class="edge">
<title>kernel_variance&#45;&gt;F</title>
<path fill="none" stroke="black" d="M154.57,-193.67C149.53,-186.71 141.43,-175.5 133.99,-165.2"/>
<polygon fill="black" stroke="black" points="136.67,-162.94 127.98,-156.88 131,-167.04 136.67,-162.94"/>
</g>
<!-- v -->
<g id="node5" class="node">
<title>v</title>
<polygon fill="white" stroke="transparent" points="201,-147.5 194,-147.5 194,-132.5 201,-132.5 201,-147.5"/>
<text text-anchor="middle" x="197.5" y="-136.3" font-family="Times,serif" font-size="14.00">v</text>
</g>
<!-- v&#45;&gt;Y -->
<g id="edge6" class="edge">
<title>v&#45;&gt;Y</title>
<path fill="none" stroke="black" d="M196.11,-132.36C194.07,-122.98 189.88,-105.39 184.5,-91 183.55,-88.46 182.47,-85.85 181.34,-83.27"/>
<polygon fill="black" stroke="black" points="184.5,-81.76 177.09,-74.19 178.16,-84.73 184.5,-81.76"/>
</g>
<!-- kernel_lengthscale -->
<g id="node6" class="node">
<title>kernel_lengthscale</title>
<polygon fill="white" stroke="transparent" points="328,-209 223,-209 223,-194 328,-194 328,-209"/>
<text text-anchor="middle" x="275.5" y="-197.8" font-family="Times,serif" font-size="14.00">kernel_lengthscale</text>
</g>
<!-- kernel_lengthscale&#45;&gt;F -->
<g id="edge5" class="edge">
<title>kernel_lengthscale&#45;&gt;F</title>
<path fill="none" stroke="black" d="M240.73,-193.99C215.47,-188.5 180.89,-179.37 152.5,-166 148.89,-164.3 145.24,-162.24 141.73,-160.05"/>
<polygon fill="black" stroke="black" points="143.62,-157.1 133.37,-154.44 139.72,-162.92 143.62,-157.1"/>
</g>
<!-- F&#45;&gt;Y -->
<g id="edge1" class="edge">
<title>F&#45;&gt;Y</title>
<path fill="none" stroke="black" d="M126.77,-123C134.18,-111.46 144.32,-95.67 152.74,-82.55"/>
<polygon fill="black" stroke="black" points="155.79,-84.28 158.25,-73.97 149.9,-80.49 155.79,-84.28"/>
</g>
</g>
</svg>
