<?xml version="1.0" encoding="UTF-8" standalone="no"?>
<!DOCTYPE svg PUBLIC "-//W3C//DTD SVG 1.1//EN"
 "http://www.w3.org/Graphics/SVG/1.1/DTD/svg11.dtd">
<!-- Generated by graphviz version 2.48.0 (0)
 -->
<!-- Pages: 1 -->
<svg width="120pt" height="134pt"
 viewBox="0.00 0.00 119.50 134.00" xmlns="http://www.w3.org/2000/svg" xmlns:xlink="http://www.w3.org/1999/xlink">
<g id="graph0" class="graph" transform="scale(1 1) rotate(0) translate(4 130)">
<polygon fill="white" stroke="transparent" points="-4,4 -4,-130 115.5,-130 115.5,4 -4,4"/>
<g id="clust1" class="cluster">
<title>cluster_F_plate_L</title>
<polygon fill="none" stroke="black" points="19,-8 19,-83 93,-83 93,-8 19,-8"/>
<text text-anchor="middle" x="56" y="-15.8" font-family="Times,serif" font-size="14.00">F_plate_L</text>
</g>
<!-- sigma_q -->
<g id="node1" class="node">
<title>sigma_q</title>
<polygon fill="white" stroke="transparent" points="48,-126 0,-126 0,-111 48,-111 48,-126"/>
<text text-anchor="middle" x="24" y="-114.8" font-family="Times,serif" font-size="14.00">sigma_q</text>
</g>
<!-- F -->
<g id="node3" class="node">
<title>F</title>
<ellipse fill="white" stroke="black" cx="56" cy="-57" rx="27" ry="18"/>
<text text-anchor="middle" x="56" y="-53.3" font-family="Times,serif" font-size="14.00">F</text>
</g>
<!-- sigma_q&#45;&gt;F -->
<g id="edge1" class="edge">
<title>sigma_q&#45;&gt;F</title>
<path fill="none" stroke="black" d="M27.67,-110.67C31.29,-103.94 37.05,-93.24 42.43,-83.24"/>
<polygon fill="black" stroke="black" points="45.54,-84.84 47.19,-74.38 39.37,-81.53 45.54,-84.84"/>
</g>
<!-- mean_q -->
<g id="node2" class="node">
<title>mean_q</title>
<polygon fill="white" stroke="transparent" points="111.5,-126 66.5,-126 66.5,-111 111.5,-111 111.5,-126"/>
<text text-anchor="middle" x="89" y="-114.8" font-family="Times,serif" font-size="14.00">mean_q</text>
</g>
<!-- mean_q&#45;&gt;F -->
<g id="edge2" class="edge">
<title>mean_q&#45;&gt;F</title>
<path fill="none" stroke="black" d="M85.21,-110.67C81.48,-103.94 75.55,-93.24 70,-83.24"/>
<polygon fill="black" stroke="black" points="72.99,-81.42 65.08,-74.38 66.87,-84.82 72.99,-81.42"/>
</g>
</g>
</svg>
